HIERARCHY
ROOT Hips
{
	OFFSET	0.00	0.00	0.00
	CHANNELS 6 Xposition Yposition Zposition Zrotation Xrotation Yrotation
	JOINT LeftUpLeg
	{
		OFFSET	 0.126116	-0.065224	 0.014019
		CHANNELS 3 Zrotation Xrotation Yrotation
		JOINT LeftLeg
		{
			OFFSET	 0.000000	 0.569914	 0.000000
			CHANNELS 3 Zrotation Xrotation Yrotation
			JOINT LeftFoot
			{
				OFFSET	 0.000000	 0.544423	 0.000000
				CHANNELS 3 Zrotation Xrotation Yrotation
				JOINT LeftToeBase
				{
					OFFSET	 0.000000	 0.207117	 0.000000
					CHANNELS 3 Zrotation Xrotation Yrotation
					End Site
					{
						OFFSET	 0.000000	 0.207117	 0.000000
					}
				}
			}
		}
	}
	JOINT RightUpLeg
	{
		OFFSET	-0.124023	-0.065224	 0.008373
		CHANNELS 3 Zrotation Xrotation Yrotation
		JOINT RightLeg
		{
			OFFSET	 0.000000	 0.570047	 0.000000
			CHANNELS 3 Zrotation Xrotation Yrotation
			JOINT RightFoot
			{
				OFFSET	 0.000000	 0.544354	 0.000000
				CHANNELS 3 Zrotation Xrotation Yrotation
				JOINT RightToeBase
				{
					OFFSET	 0.000000	 0.207540	 0.000000
					CHANNELS 3 Zrotation Xrotation Yrotation
					End Site
					{
						OFFSET	 0.000000	 0.207540	 0.000000
					}
				}
			}
		}
	}
	JOINT Spine
	{
		OFFSET	 0.000184	 0.117403	 0.007763
		CHANNELS 3 Zrotation Xrotation Yrotation
		JOINT Spine1
		{
			OFFSET	 0.000000	 0.137269	 0.000000
			CHANNELS 3 Zrotation Xrotation Yrotation
			JOINT Spine2
			{
				OFFSET	 0.000000	 0.156879	 0.000000
				CHANNELS 3 Zrotation Xrotation Yrotation
				JOINT LeftShoulder
				{
					OFFSET	 0.080501	 0.160143	 0.002496
					CHANNELS 3 Zrotation Xrotation Yrotation
					JOINT LeftArm
					{
						OFFSET	 0.000000	 0.164363	 0.000000
						CHANNELS 3 Zrotation Xrotation Yrotation
						JOINT LeftForeArm
						{
							OFFSET	 0.000000	 0.364576	 0.000000
							CHANNELS 3 Zrotation Xrotation Yrotation
							JOINT LeftHand
							{
								OFFSET	 0.000000	 0.360812	 0.000000
								CHANNELS 3 Zrotation Xrotation Yrotation
								JOINT LeftHandIndex1
								{
									OFFSET	 0.000000	 0.086006	 0.000000
									CHANNELS 3 Zrotation Xrotation Yrotation
									JOINT LeftHandIndex2
									{
										OFFSET	 0.000000	 0.047237	 0.000000
										CHANNELS 3 Zrotation Xrotation Yrotation
										JOINT LeftHandIndex3
										{
											OFFSET	-0.004284	 0.038165	 0.000551
											CHANNELS 3 Zrotation Xrotation Yrotation
											End Site
											{
												OFFSET	-0.004284	 0.038165	 0.000551
											}
										}
									}
								}
							}
						}
					}
				}
				JOINT Neck
				{
					OFFSET	 0.000000	 0.176489	 0.000000
					CHANNELS 3 Zrotation Xrotation Yrotation
					JOINT Head
					{
						OFFSET	 0.000000	 0.077941	 0.001747
						CHANNELS 3 Zrotation Xrotation Yrotation
						End Site
						{
							OFFSET	 0.000000	 0.077941	 0.001747
						}
					}
				}
				JOINT RightShoulder
				{
					OFFSET	-0.080363	 0.159706	-0.000306
					CHANNELS 3 Zrotation Xrotation Yrotation
					JOINT RightArm
					{
						OFFSET	 0.000000	 0.164196	 0.000000
						CHANNELS 3 Zrotation Xrotation Yrotation
						JOINT RightForeArm
						{
							OFFSET	 0.000000	 0.365611	 0.000000
							CHANNELS 3 Zrotation Xrotation Yrotation
							JOINT RightHand
							{
								OFFSET	 0.000000	 0.360648	 0.000000
								CHANNELS 3 Zrotation Xrotation Yrotation
								JOINT RightHandIndex1
								{
									OFFSET	 0.000000	 0.069977	 0.000000
									CHANNELS 3 Zrotation Xrotation Yrotation
									JOINT RightHandIndex2
									{
										OFFSET	 0.000000	 0.052305	 0.000000
										CHANNELS 3 Zrotation Xrotation Yrotation
										JOINT RightHandIndex3
										{
											OFFSET	 0.009002	 0.042196	 0.000782
											CHANNELS 3 Zrotation Xrotation Yrotation
											End Site
											{
												OFFSET	 0.009002	 0.042196	 0.000782
											}
										}
									}
								}
							}
						}
					}
				}
			}
		}
	}
}
MOTION
Frames:    9
Frame Time: 0.03333334
-0.046431	 1.228205	-3.560748	-3.307405	 1.175887	-174.398700	 171.056200	 11.596770	-6.007584	 4.708401	-31.769500	 4.563581	-0.441139	 78.894680	 8.774183	 1.491929	 30.986280	-2.802134	 173.013600	 29.458160	 8.700418	-8.415846	-62.476110	 2.440179	 6.709367	 74.774800	-3.016677	-1.715916	 33.486760	 3.728981	-1.826771	 8.303193	-1.893199	 0.147272	 3.175163	-0.386479	-0.315145	-3.682260	-0.547510	-121.615500	 7.307358	 93.998670	 7.036656	 48.590080	 4.987988	 25.469910	-1.274831	 0.204182	 4.915002	-9.970097	 10.161070	 4.678057	 19.521530	-1.713420	-5.862549	 22.021260	 2.434511	 5.346843	 4.698996	-0.162565	-0.175788	-4.855324	-0.066535	-2.219313	-2.015020	-3.304196	 118.524700	-0.212044	-90.738120	 7.370841	 51.602020	-11.388110	-16.297670	-0.632612	-0.032004	-0.169230	 4.037583	-13.006620	-2.300281	 25.007440	 1.259455	 15.675810	 44.283020	-11.566890	-8.532708	 22.860190	-1.152589
-0.044392	 1.224702	-3.706483	-3.248601	-0.177550	-172.728200	 171.745000	 3.389620	-4.470312	 4.050640	-28.054600	 6.686277	 17.869050	 83.426420	-10.638420	 1.557206	 31.796300	-2.832980	 169.055400	 36.927220	 14.694410	-4.005060	-42.887890	 8.378108	 12.226960	 70.009240	-9.088328	-1.677004	 33.173280	 3.182952	-1.300528	 7.555415	-3.964408	 0.302589	 4.048955	-1.075061	-0.343963	-4.333085	-1.006651	-121.435400	 8.538896	 94.598980	 22.853080	 40.718040	-3.751362	 26.548170	-1.324797	 0.228715	 6.804363	-11.808610	 5.156091	 4.685939	 19.633910	-1.722628	-5.862512	 22.040770	 2.436671	 5.348562	 4.739438	-0.161836	-0.176082	-4.860445	 0.097777	-1.853430	-2.498127	-3.338322	 118.226700	-0.741228	-90.484940	 17.301170	 52.073920	-17.603240	-14.570250	-0.567111	-0.013953	-1.322259	 5.230227	-15.584410	-1.941706	 22.516070	 1.084061	 15.065090	 41.675590	-10.587280	-8.535223	 20.472400	-0.996138
-0.037436	 1.206507	-3.872986	-2.986163	-0.954693	-171.506200	 173.588000	-5.451441	-3.179267	 3.655030	-25.685530	 6.893367	 28.702710	 85.736440	-22.797450	 2.071625	 37.715630	-3.103537	 170.983200	 31.127090	 14.927530	-0.714313	-9.413709	 11.269460	 8.722028	 58.648630	-7.521019	-1.719680	 33.744970	 2.912002	-0.650466	 6.976170	-6.227809	 0.627028	 4.484569	-1.778954	-0.401610	-4.740780	-1.257596	-121.254400	 9.341046	 94.981540	 36.817670	 32.842070	-11.599680	 16.991790	-0.866351	 0.045587	 14.141540	-13.874130	 1.522337	 4.814346	 19.947090	-1.786335	-5.861859	 22.484160	 2.485858	 5.374498	 5.349437	-0.151066	-0.164495	-4.938336	 0.225851	-1.539366	-2.799891	-3.017994	 118.159900	-1.253607	-90.248270	 18.163800	 52.259100	-15.880130	-5.110952	-0.200837	 0.049632	-4.329830	 5.245997	-20.117660	-1.629246	 18.166870	 0.941429	 14.236750	 37.405880	-9.140256	-8.523321	 16.314530	-0.729001
-0.027687	 1.179536	-4.006886	-2.659871	-0.984791	-171.016700	 175.598100	-11.340970	-2.255948	 3.917188	-27.266530	 5.349859	 1.991934	 86.776700	 2.616719	 3.044386	 46.808970	-3.724270	 171.403800	 40.035240	 13.089560	-1.736070	-21.944520	 10.001560	 12.147470	 67.643390	-8.762010	-1.826117	 34.983310	 2.967258	-0.046010	 6.677900	-8.019055	 0.847332	 4.293291	-2.207996	-0.401674	-4.767177	-1.284062	-121.111200	 9.535307	 95.063760	 34.501810	 32.330620	-11.621400	 24.150270	-1.212862	 0.175629	 12.465080	-16.556720	 0.843715	 5.021241	 20.362960	-1.885056	-5.861679	 23.202170	 2.565840	 5.415790	 6.324694	-0.134405	-0.144890	-5.062882	 0.286889	-1.356286	-2.853768	-2.457210	 118.323400	-1.614554	-90.086200	 20.802960	 51.085050	-15.498350	-5.119925	-0.201199	 0.049521	-0.734949	 3.990302	-25.098160	-1.440830	 13.242590	 0.867880	 13.524880	 32.712460	-7.723804	-8.486294	 11.612430	-0.431543
-0.017103	 1.167968	-4.108918	-1.322252	 0.042697	-169.028100	-179.872400	-22.420070	-0.883847	 2.798508	-20.221310	 2.783138	-10.335610	 68.063410	 13.682220	 6.191868	 64.469700	-5.350339	 174.534400	 37.339110	 10.124500	-1.714204	-21.694050	 10.794780	 2.070727	 58.434620	-5.820210	-1.822799	 34.945240	 2.965505	 1.432088	 6.552187	-10.586930	 1.228211	 3.440326	-2.919556	-0.279388	-4.036783	-1.479743	-121.033100	 9.196811	 94.886540	 36.236390	 31.913750	-12.311660	 20.041910	-1.015963	 0.095696	 11.620730	-14.632270	-0.871164	 5.059902	 20.671660	-1.918545	-5.862881	 24.052850	 2.661173	 5.460176	 7.378266	-0.117172	-0.114507	-5.164189	 0.287797	-1.562325	-1.793626	-2.027667	 118.804100	-2.245478	-89.802830	 24.870530	 49.167930	-17.117180	-5.082945	-0.199739	 0.049643	-2.409306	 3.663664	-26.843260	-1.534096	 9.772676	 0.904605	 13.138270	 29.525630	-6.841802	-8.449161	 8.546604	-0.238327
-0.010226	 1.180194	-4.230488	-0.416001	 1.176517	-169.397700	-178.970400	-12.279300	-3.497437	 6.386830	-40.005400	 5.998243	-11.566870	 66.865940	 13.874430	 5.917993	 63.612470	-4.949635	 178.150100	 34.623910	 7.384715	-2.523525	-30.565940	 8.831236	-4.571889	 61.946800	-0.686027	-1.735496	 33.931210	 2.920086	 2.168317	 6.955130	-9.727716	 1.034228	 2.892415	-2.597185	-0.087464	-3.510262	-1.445122	-120.843000	 8.700630	 94.622470	 27.250220	 37.168690	-7.365876	 25.477690	-1.275138	 0.204473	 7.065948	-12.289380	 1.318771	 5.034981	 21.475240	-1.959469	-5.865830	 24.946030	 2.761988	 5.508605	 8.533388	-0.099179	-0.067125	-5.138146	 0.186948	-1.720152	-1.283339	-2.144024	 119.200400	-2.101929	-89.875630	 24.295100	 49.501040	-17.176410	-11.341310	-0.443326	 0.014593	-0.663537	 2.459176	-23.192170	-1.762569	 10.647370	 1.002941	 13.239670	 30.419850	-7.083707	-8.456717	 9.107627	-0.273706
-0.005287	 1.194949	-4.345037	 0.176746	 2.100646	-171.170000	-178.009800	-2.600700	-6.946431	 10.871910	-54.902780	 10.892310	-11.857270	 69.737460	 13.814270	 3.828517	 52.562680	-3.591025	-178.827900	 30.412320	 5.788486	-3.008821	-34.917500	 5.718323	-11.709130	 67.290150	 7.599984	-1.633424	 32.715510	 2.868748	 2.406025	 7.562177	-7.471763	 0.880013	 2.642552	-2.081995	-0.031838	-3.249322	-1.270332	-120.587800	 8.232895	 94.369590	 21.022290	 41.099880	-4.349549	 24.387390	-1.223963	 0.180689	 4.936808	-9.700207	 4.513501	 5.015532	 22.535870	-2.017680	-5.870568	 25.842140	 2.863938	 5.558655	 9.732455	-0.081487	-0.013419	-5.058333	 0.050448	-1.777710	-1.241938	-2.487300	 119.499800	-1.550206	-90.140640	 19.292240	 50.409780	-14.593470	-14.710820	-0.572481	-0.015348	-1.118826	 0.794460	-18.274950	-2.008013	 13.229610	 1.123692	 13.548210	 32.887360	-7.773897	-8.479773	 11.006830	-0.393380
 0.001115	 1.215670	-4.513406	 0.968786	 3.247442	-173.440700	-175.382500	 10.897820	-11.860670	 20.958870	-69.667560	 20.653540	-11.489630	 68.035980	 14.117680	 2.170801	 38.433850	-2.941218	-175.711100	 21.210330	 4.778564	-3.093151	-35.663540	 2.394197	-23.979730	 72.547700	 20.951700	-1.506903	 31.163330	 2.807861	 2.670508	 8.342420	-4.345015	 0.587301	 2.536498	-1.130232	 0.080368	-3.014249	-1.097811	-120.265400	 7.634141	 94.050190	 16.907490	 45.353280	-2.737874	 13.568680	-0.695505	-0.001070	 8.291006	-6.585971	 9.230640	 4.992190	 23.890000	-2.092102	-5.879270	 26.986170	 2.995377	 5.622288	 11.263310	-0.060352	 0.055414	-4.956619	-0.123905	-1.851330	-1.188641	-2.925536	 119.885700	-0.847864	-90.483060	 2.898886	 51.286070	-3.405128	-9.793427	-0.383467	 0.025718	-4.671563	-1.308083	-11.500980	-2.333949	 16.525510	 1.296746	 14.009000	 36.032530	-8.709188	-8.503523	 13.431570	-0.546288
 0.002833	 1.228666	-4.657165	 0.802053	 3.137900	-175.543700	-173.763700	 24.678690	-17.403150	 25.171010	-72.690950	 22.745030	-12.714220	 69.703250	 17.039960	 1.512046	 31.237400	-2.811552	-174.901500	 12.771880	 4.186727	-2.841879	-33.399460	-0.017990	-40.291080	 75.511470	 36.981290	-1.569357	 31.935800	 2.837528	 1.863257	 8.478886	-1.401701	 0.500137	 2.681586	-0.378607	-0.003003	-3.073759	-0.722319	-120.127300	 6.771301	 93.621410	 7.688766	 49.186870	 2.865462	 10.864690	-0.558783	-0.030733	 7.083336	-4.305310	 14.091480	 5.009081	 25.504910	-2.144777	-5.894582	 28.425090	 3.162953	 5.691387	 12.931490	-0.039170	 0.098002	-4.872394	-0.311809	-2.105357	-1.433621	-3.280384	 119.903800	-0.062002	-90.858240	-4.916805	 50.589490	-0.505657	-15.834430	-0.615114	-0.026937	-5.434091	-3.603456	-6.552942	-2.597655	 18.503810	 1.426805	 14.341940	 38.006830	-9.333718	-8.516769	 15.199560	-0.658159
